<svg width="388" height="244" viewBox="0 0 388 244" fill="none" xmlns="http://www.w3.org/2000/svg">
<path fill-rule="evenodd" clip-rule="evenodd" d="M202.5 1.37127C201.95 2.05627 199.475 6.65227 197 11.5833C194.525 16.5143 192.275 20.7733 192 21.0483C191.725 21.3233 189.044 26.4983 186.042 32.5483C183.04 38.5983 179.624 45.1233 178.452 47.0483C177.279 48.9733 176.03 51.7223 175.676 53.1573C175.046 55.7103 175.165 55.7803 181.163 56.4073C192.22 57.5633 198.525 57.2033 200.597 55.2983C201.644 54.3353 205.178 48.1483 208.452 41.5483C211.725 34.9483 214.65 29.3233 214.952 29.0483C215.253 28.7733 215.999 27.6483 216.609 26.5483C217.377 25.1623 218.754 24.5483 221.091 24.5483C224.401 24.5483 224.579 24.7753 230.482 36.5483C233.792 43.1483 236.737 48.7733 237.028 49.0483C237.318 49.3233 238.43 51.5733 239.5 54.0483C240.57 56.5233 241.687 58.7733 241.983 59.0483C242.278 59.3233 245.193 64.9483 248.461 71.5483C251.728 78.1483 254.76 83.6983 255.2 83.8813C255.64 84.0653 256 84.8613 256 85.6513C256 86.4413 257.125 88.8703 258.5 91.0483C259.875 93.2263 261 95.4763 261 96.0483C261 96.6203 262.024 98.7663 263.275 100.818C264.527 102.869 266.889 107.248 268.525 110.548C270.161 113.848 271.737 116.773 272.028 117.048C272.318 117.323 273.416 119.573 274.467 122.048C275.519 124.523 276.799 127.111 277.312 127.798C278.543 129.447 304 129.594 304 127.952C304 126.994 302.921 124.647 299.909 119.048C299.465 118.223 297.616 114.623 295.801 111.048C293.985 107.473 292.163 104.398 291.75 104.215C291.337 104.031 291 103.28 291 102.546C291 101.268 288.074 95.0943 286.972 94.0493C286.682 93.7733 285.57 91.5233 284.5 89.0483C283.43 86.5733 282.318 84.3233 282.028 84.0473C280.926 83.0023 278 76.8283 278 75.5503C278 74.8163 277.657 74.0653 277.238 73.8813C276.819 73.6983 273.801 68.1483 270.53 61.5483C267.26 54.9483 264.34 49.3233 264.042 49.0483C263.744 48.7733 260.762 43.1483 257.416 36.5483C248.684 19.3263 239.907 2.75127 238.75 1.29827C237.337 -0.477733 203.929 -0.410735 202.5 1.37127ZM0 70.1473C0 72.6923 3.41701 78.1123 7.31601 81.7543C10.995 85.1893 13.9 87.0873 20.171 90.1503C24.597 92.3123 42.018 93.0483 88.791 93.0483C139.135 93.0483 139.135 93.0483 138.461 95.1713C137.944 96.7993 135.306 101.792 133.651 104.275C133.568 104.4 110.775 104.737 83 105.025C32.5 105.548 32.5 105.548 32.852 108.048C33.046 109.423 34.469 112.271 36.016 114.378C40.331 120.256 45.464 123.671 55.5 127.344C57.3 128.003 70.964 128.664 89.656 128.995C120.811 129.548 120.811 129.548 118.09 135.048C115.369 140.548 115.369 140.548 90.08 140.815C64.792 141.083 64.792 141.083 65.474 143.815C66.247 146.912 70.172 152.468 73.919 155.769C75.306 156.991 79.177 159.337 82.521 160.984C88.049 163.705 89.851 164.04 102.337 164.667C109.891 165.046 116.282 165.695 116.538 166.11C116.9 166.695 104.568 191.82 93.923 212.185C93.244 213.485 92.23 215.448 91.67 216.548C91.11 217.648 88.021 223.638 84.805 229.86C81.59 236.082 79.219 241.594 79.538 242.11C79.883 242.668 95.836 243.048 118.906 243.048C157.694 243.048 157.694 243.048 161.017 236.798C162.844 233.361 167.058 225.148 170.382 218.548C173.706 211.948 176.78 206.398 177.213 206.215C177.646 206.031 178 205.357 178 204.716C178 203.602 185.963 187.085 187 186.048C187.275 185.773 188.277 183.867 189.227 181.811C190.936 178.115 190.931 178.069 188.727 177.521C187.502 177.216 181.55 177.097 175.5 177.257C165.188 177.53 164.438 177.689 163.513 179.798C162.97 181.036 162.182 182.048 161.763 182.048C161.343 182.048 161 182.697 161 183.491C161 184.284 160.133 186.422 159.073 188.241C158.014 190.06 154.021 197.623 150.2 205.048C143.254 218.548 143.254 218.548 130.533 218.829C123.455 218.985 117.965 218.717 118.156 218.226C119.537 214.676 131.628 191.479 132.235 191.215C132.656 191.031 133 190.235 133 189.445C133 188.655 134.125 186.226 135.5 184.048C136.875 181.87 138 179.494 138 178.768C138 178.042 138.404 177.02 138.898 176.498C139.392 175.976 143.554 168.123 148.148 159.048C152.742 149.973 156.725 142.323 157 142.047C158.147 140.899 161 134.778 161 133.467C161 132.687 161.351 132.048 161.781 132.048C162.21 132.048 163.079 130.81 163.711 129.298C164.343 127.786 165.634 125.198 166.581 123.548C167.528 121.898 168.605 119.873 168.975 119.048C169.345 118.223 170.402 116.085 171.324 114.298C172.246 112.511 173.754 109.585 174.676 107.798C175.598 106.011 176.793 103.648 177.332 102.548C177.87 101.448 178.667 99.8733 179.102 99.0483C179.537 98.2233 182.5 92.3733 185.687 86.0483C188.873 79.7233 191.749 74.3233 192.078 74.0483C192.406 73.7733 192.931 72.5363 193.244 71.2983C193.813 69.0483 193.813 69.0483 96.906 69.0483C27.156 69.0483 0 69.3563 0 70.1473ZM214.254 80.8683C210.938 87.2923 205.812 97.2733 202.862 103.048C199.913 108.823 197.163 113.698 196.75 113.881C196.337 114.065 196 114.816 196 115.55C196 116.798 193.111 122.934 192 124.047C191.089 124.959 183 141.908 183 142.904C183 143.442 182.663 144.031 182.25 144.215C181.837 144.398 180.613 146.348 179.528 148.548C178.444 150.748 176.572 154.162 175.369 156.135C174.166 158.107 173.028 160.807 172.841 162.135C172.5 164.548 172.5 164.548 256.635 164.804C340.77 165.059 340.77 165.059 341.371 167.304C341.702 168.538 341.979 171.685 341.986 174.298C341.997 178.168 342.327 179.048 343.768 179.048C344.74 179.048 347.191 177.923 349.215 176.548C351.238 175.173 353.148 174.048 353.458 174.048C353.768 174.048 357.612 171.798 362 169.048C366.388 166.298 370.172 164.048 370.41 164.048C370.778 164.048 386.903 154.29 387.82 153.512C388.543 152.9 379.487 147.271 365.5 139.639C364.4 139.039 363.275 138.278 363 137.948C362.46 137.299 351.921 131.336 348.258 129.607C347.025 129.024 346.012 128.21 346.008 127.798C346.004 127.386 345.121 127.048 344.046 127.048C342.329 127.048 342.055 127.868 341.796 133.798C341.5 140.548 341.5 140.548 276.25 140.805C240.362 140.947 211 140.828 211 140.542C211 140.067 211.952 138.083 214.115 134.048C214.557 133.223 216.145 130.124 217.644 127.161C220.369 121.773 220.369 121.773 222.68 124.661C223.95 126.249 224.992 127.886 224.995 128.298C224.998 128.71 230.85 129.048 238 129.048C245.696 129.048 251 128.654 251 128.082C251 127.008 247.801 119.834 246.972 119.048C246.682 118.773 245.57 116.523 244.5 114.048C243.43 111.573 242.305 109.323 242 109.048C241.695 108.773 240.57 106.523 239.5 104.048C238.43 101.573 237.318 99.3233 237.028 99.0483C236.737 98.7733 234.659 94.9483 232.409 90.5483C225.047 76.1533 222.546 71.5663 221.406 70.3683C220.561 69.4803 218.786 72.0873 214.254 80.8683ZM252.268 177.844C251.371 178.427 253.71 183.921 260.892 198.096C274.616 225.185 276.377 228.502 277.241 228.881C277.658 229.065 278 229.816 278 230.55C278 231.878 280.978 238.09 282.073 239.047C282.388 239.323 282.936 240.336 283.292 241.298C283.891 242.924 286.701 243.048 322.802 243.048C344.178 243.048 361.938 242.777 362.269 242.446C362.81 241.905 360.231 235.279 359 234.048C358.725 233.773 355.226 227.023 351.224 219.048C347.223 211.073 343.217 203.198 342.323 201.548C341.429 199.898 340.293 197.73 339.798 196.731C334.097 185.21 330.419 178.418 329.553 177.813C327.943 176.69 305.211 176.897 304.504 178.042C303.983 178.884 315.462 203.016 320.917 212.548C324.819 219.366 325.297 219.048 311.138 219.048C298.338 219.048 298.338 219.048 297.047 216.298C295.498 212.998 294.052 210.162 290.598 203.649C289.169 200.955 288 198.348 288 197.857C288 197.366 287.531 196.42 286.958 195.756C286.385 195.092 283.956 190.723 281.56 186.048C277.203 177.548 277.203 177.548 265.352 177.297C258.833 177.158 252.946 177.405 252.268 177.844Z" fill="#FF0000"/>
</svg>
